# Blender 4.1.1
# www.blender.org
mtllib untitled.mtl
o Cube
v 0.650305 1.000000 -0.650305
v 1.355767 -1.000000 -1.355767
v 0.650305 1.000000 0.650305
v 1.355767 -1.000000 1.355767
v -0.650305 1.000000 -0.650305
v -1.355767 -1.000000 -1.355767
v -0.650305 1.000000 0.650305
v -1.355767 -1.000000 1.355767
v 0.355145 0.721167 0.906600
v 0.627489 -0.050934 1.178943
v -0.146955 0.721167 0.906600
v -0.419299 -0.050934 1.178943
v -0.008459 0.610376 3.683572
v 0.107841 0.208683 3.667922
v -0.251373 0.620662 3.669771
v -0.398591 0.230128 3.639151
v 0.042745 0.681719 3.734943
v 0.202055 0.131472 3.713505
v -0.290005 0.695809 3.716039
v -0.491667 0.160847 3.674094
v 0.028607 0.693163 4.053491
v 0.187917 0.142915 4.032053
v -0.304143 0.707253 4.034586
v -0.505805 0.172291 3.992642
v 1.960407 -1.094044 -1.971031
v 1.960407 -1.094044 1.819499
v -1.830123 -1.094044 -1.971031
v -1.830123 -1.094044 1.819499
v 1.960407 -2.908013 -1.971031
v 1.960407 -2.908013 1.819499
v -1.830123 -2.908013 -1.971031
v -1.830123 -2.908013 1.819499
vn -0.0000 1.0000 -0.0000
vn -0.0000 0.6767 0.7362
vn -0.9431 0.3326 -0.0000
vn -0.1945 0.9809 -0.0000
vn 0.9431 0.3326 -0.0000
vn -0.0000 0.3326 -0.9431
vn -0.0157 -0.9941 0.1070
vn 0.3386 0.4170 0.8435
vn -0.2332 0.3956 0.8883
vn -0.0000 0.1832 0.9831
vn 0.0706 0.5490 -0.8328
vn 0.9291 0.3396 0.1462
vn 0.0131 0.9991 0.0392
vn -0.9420 0.3344 -0.0267
vn -0.9329 0.3559 -0.0542
vn -0.4995 0.2533 -0.8284
vn 0.0294 -0.4813 -0.8760
vn 0.5499 0.1909 -0.8132
vn -0.0590 -0.0559 0.9967
vn -0.0442 -0.9984 0.0339
vn 0.9604 0.2768 0.0327
vn 0.0442 0.9984 -0.0339
vn -0.0000 -0.0000 1.0000
vn 0.1537 0.9881 -0.0000
vn -0.0000 0.9885 -0.1511
vn -0.0000 0.9800 0.1988
vn -0.0000 -1.0000 -0.0000
vn -1.0000 -0.0000 -0.0000
vn 1.0000 -0.0000 -0.0000
vn -0.0000 -0.0000 -1.0000
vt 0.625000 0.500000
vt 0.875000 0.500000
vt 0.875000 0.750000
vt 0.625000 0.750000
vt 0.375000 0.000000
vt 0.625000 0.000000
vt 0.625000 0.250000
vt 0.375000 0.250000
vt 0.375000 0.500000
vt 0.375000 0.750000
vt 0.125000 0.750000
vt 0.625000 1.000000
vt 0.375000 1.000000
vt 0.125000 0.500000
s 0
usemtl Material
f 1/1/1 5/2/1 7/3/1 3/4/1
f 3/4/2 7/3/2 11/3/2 9/4/2
f 8/5/3 7/6/3 5/7/3 6/8/3
f 8/5/4 6/8/4 27/8/4 28/5/4
f 2/9/5 1/1/5 3/4/5 4/10/5
f 6/8/6 5/7/6 1/1/6 2/9/6
f 12/11/7 10/10/7 14/10/7 16/11/7
f 4/10/8 3/4/8 9/4/8 10/10/8
f 7/6/9 8/5/9 12/5/9 11/6/9
f 8/11/10 4/10/10 10/10/10 12/11/10
f 13/4/11 15/3/11 19/3/11 17/4/11
f 10/10/12 9/4/12 13/4/12 14/10/12
f 9/4/13 11/3/13 15/3/13 13/4/13
f 11/6/14 12/5/14 16/5/14 15/6/14
f 19/6/15 20/5/15 24/5/15 23/6/15
f 15/6/16 16/5/16 20/5/16 19/6/16
f 16/11/17 14/10/17 18/10/17 20/11/17
f 14/10/18 13/4/18 17/4/18 18/10/18
f 22/10/19 21/4/19 23/12/19 24/13/19
f 20/11/20 18/10/20 22/10/20 24/11/20
f 18/10/21 17/4/21 21/4/21 22/10/21
f 17/4/22 19/3/22 23/3/22 21/4/22
f 26/10/23 28/11/23 32/11/23 30/10/23
f 2/9/24 4/10/24 26/10/24 25/9/24
f 6/8/25 2/9/25 25/9/25 27/8/25
f 4/10/26 8/11/26 28/11/26 26/10/26
f 31/14/27 29/9/27 30/10/27 32/11/27
f 28/5/28 27/8/28 31/8/28 32/5/28
f 25/9/29 26/10/29 30/10/29 29/9/29
f 27/8/30 25/9/30 29/9/30 31/8/30
